Patient4_TMGait_0pt7_02_left_16_GRF.mot
version=1
nRows=38
nColumns=19
inDegrees=no
endheader
time	F1x	F1y	F1z	M1x	M1y	M1z	F2x	F2y	F2z	M2x	M2y	M2z	EC1x	EC1y	EC1z	EC2x	EC2y	EC2z
18.04	0.55744	-9.3201	8.9399	-0.48911	-6.1291	-14.801	-24.4022	767.7719	-49.0431	290.2827	70.4256	832.1808	-0.0592	0.0182	-0.0073	-0.0462	0.0165	0.9585
18.0516	0.36784	-5.2914	5.9708	-0.62324	-4.1367	-8.8788	-27.0777	760.3002	-52.1493	289.599	71.7352	820.7775	-0.0592	0.0182	-0.0073	-0.0462	0.0165	0.9585
18.0631	0.19662	-1.8743	3.4957	-0.75539	-2.4641	-3.8462	-29.0215	754.3161	-54.3031	289.0873	72.1887	810.4745	-0.0592	0.0182	-0.0073	-0.0462	0.0165	0.9585
18.0747	0.044439	0.75465	1.6369	-0.87824	-1.2025	0.035515	-30.1198	750.2166	-55.4663	288.8209	71.8016	801.8421	-0.0592	0.0182	-0.0073	-0.0462	0.0165	0.9585
18.0863	-0.056646	2.5833	0.3766	-0.98229	-0.34003	2.7394	-30.4241	747.8471	-55.7838	288.7606	70.7233	794.828	-0.0592	0.0182	-0.0073	-0.0462	0.0165	0.9585
18.0979	-0.14409	3.7338	-0.376	-1.0669	0.16829	4.4527	-30.0199	746.6675	-55.4721	288.7692	69.1291	788.9416	-0.0592	0.0182	-0.0073	-0.0462	0.0165	0.9585
18.1094	-0.20963	4.3413	-0.74825	-1.1258	0.4076	5.355	-29.0105	745.9292	-54.7487	288.6481	67.1763	783.4483	-0.0592	0.0182	-0.0073	-0.0462	0.0165	0.9585
18.121	-0.29268	4.546	-0.85004	-1.1517	0.4373	5.6717	-27.4493	744.9059	-53.7886	288.2025	64.9688	777.5973	-0.0592	0.0182	-0.0073	-0.0462	0.0165	0.9585
18.1326	-0.39234	4.4321	-0.78083	-1.129	0.32609	5.5207	-25.3891	743.0509	-52.7222	287.2931	62.5783	770.8206	-0.0592	0.0182	-0.0073	-0.0462	0.0165	0.9585
18.1441	-0.53386	4.0395	-0.61404	-1.0345	0.11844	5.0085	-22.8478	740.0656	-51.6636	285.8592	60.0729	762.8079	-0.0592	0.0182	-0.0073	-0.0462	0.0165	0.9585
18.1557	-0.69348	3.3534	-0.39525	-0.83769	-0.14513	4.1262	-19.8496	735.9431	-50.7101	283.9318	57.5267	753.5445	-0.0592	0.0182	-0.0073	-0.0462	0.0165	0.9585
18.1673	-0.87391	2.335	-0.16705	-0.50601	-0.42831	2.8496	-16.4108	730.9005	-49.9495	281.619	55.0176	743.2367	-0.0592	0.0182	-0.0073	-0.0462	0.0165	0.9585
18.1789	-1.0267	0.91412	0.059062	-0.0076636	-0.70367	1.089	-12.5639	725.3561	-49.4503	279.0953	52.6196	732.3037	-0.0592	0.0182	-0.0073	-0.0462	0.0165	0.9585
18.1904	-1.1199	-0.93692	0.25209	0.66769	-0.93089	-1.1701	-8.3507	719.8222	-49.2435	276.5718	50.3799	721.2563	-0.0592	0.0182	-0.0073	-0.0462	0.0165	0.9585
18.202	-1.0736	-3.1836	0.40466	1.5	-1.0702	-3.8819	-3.8427	714.8484	-49.3582	274.2717	48.3514	710.6593	-0.0592	0.0182	-0.0073	-0.0462	0.0165	0.9585
18.2136	-0.80226	-5.6048	0.46484	2.4012	-1.0295	-6.7747	0.87956	710.9455	-49.7917	272.4029	46.5567	701.028	-0.0592	0.0182	-0.0073	-0.0462	0.0165	0.9585
18.2251	-0.17549	-7.765	0.38855	3.1982	-0.69616	-9.3527	5.6846	708.5443	-50.5398	271.1413	45.0343	692.8089	-0.0592	0.0182	-0.0073	-0.0462	0.0165	0.9585
18.2367	0.93224	-8.8707	0.079007	3.5863	0.097191	-10.6818	10.4122	707.9596	-51.5756	270.6173	43.8127	686.3377	-0.0592	0.0182	-0.0073	-0.0462	0.0165	0.9585
18.2483	2.672	-7.7338	-0.55744	3.1104	1.5251	-9.3831	14.8912	709.3248	-52.8553	270.888	42.9093	681.7918	-0.0592	0.0182	-0.0073	-0.0462	0.0165	0.9585
18.2599	5.1247	-2.7041	-1.6447	1.145	3.7648	-3.506	18.9817	712.5159	-54.3073	271.9075	42.3061	679.0986	-0.0592	0.0182	-0.0073	-0.0462	0.0165	0.9585
18.2714	8.3022	8.2532	-3.2714	-3.0787	6.923	9.361	22.6022	717.1012	-55.8243	273.5064	41.9355	677.8995	-0.0592	0.0182	-0.0073	-0.0462	0.0165	0.9585
18.283	11.9724	27.3927	-5.4815	-10.4035	10.9555	31.9183	25.7527	722.2548	-57.2765	275.3587	41.6844	677.4605	-0.0592	0.0182	-0.0073	-0.0462	0.0165	0.9585
18.2946	15.6062	56.7283	-8.1849	-21.5745	15.5436	66.5739	28.4993	726.6984	-58.498	276.9631	41.3806	676.6251	-0.0592	0.0182	-0.0073	-0.0462	0.0165	0.9585
18.3061	18.191	97.3329	-11.099	-36.9687	19.9556	114.6707	30.9711	728.799	-59.3013	277.6866	40.811	673.91	-0.0592	0.0182	-0.0073	-0.0462	0.0165	0.9585
18.3177	18.162	148.2595	-13.6139	-56.1867	22.868	175.1533	33.2562	726.7246	-59.4298	276.8287	39.7157	667.6725	-0.0592	0.0182	-0.0073	-0.0462	0.0165	0.9585
18.3293	13.8267	205.8316	-14.7707	-77.7831	22.5365	243.7492	35.3802	718.5827	-58.6364	273.6756	37.8835	656.2476	-0.0592	0.0182	-0.0073	-0.0462	0.0165	0.9585
18.3409	5.3248	264.2154	-13.423	-99.4801	17.6477	313.5371	37.255	702.6849	-56.6896	267.595	35.1658	638.1833	-0.0592	0.0182	-0.0073	-0.0462	0.0165	0.9585
18.3524	-5.1195	316.4127	-8.5301	-118.6128	7.8619	375.9486	38.7391	677.7921	-53.4864	258.1234	31.557	612.4396	-0.0592	0.0182	-0.0073	-0.0462	0.0165	0.9585
18.364	-15.0494	357.0931	-0.46955	-133.251	-5.3891	424.2363	39.6647	643.2964	-49.1261	245.0272	27.2368	578.5445	-0.0592	0.0182	-0.0073	-0.0462	0.0165	0.9585
18.3756	-23.1701	385.8887	9.1739	-143.3417	-19.7146	457.6791	39.899	599.4253	-43.8789	228.3753	22.5117	536.7643	-0.0592	0.0182	-0.0073	-0.0462	0.0165	0.9585
18.3871	-29.1358	406.4318	18.839	-150.3409	-33.147	480.5051	39.3247	547.3105	-38.1349	208.5754	17.7639	488.1597	-0.0592	0.0182	-0.0073	-0.0462	0.0165	0.9585
18.3987	-33.2209	423.8159	27.2489	-156.233	-44.302	498.7964	37.9012	488.8493	-32.2923	186.3305	13.3325	434.4438	-0.0592	0.0182	-0.0073	-0.0462	0.0165	0.9585
18.4103	-35.7044	442.3439	33.5844	-162.6833	-52.3553	517.6651	35.6091	426.4017	-26.6439	162.5351	9.4479	377.7176	-0.0592	0.0182	-0.0073	-0.0462	0.0165	0.9585
18.4219	-36.8366	464.4404	37.5287	-170.6331	-57.0628	539.9785	32.4707	362.5242	-21.3581	138.1727	6.2195	320.2298	-0.0592	0.0182	-0.0073	-0.0462	0.0165	0.9585
18.4334	-36.6953	490.9228	39.3812	-180.3654	-58.8239	566.6341	28.5507	299.7728	-16.5478	114.2288	3.6982	264.204	-0.0592	0.0182	-0.0073	-0.0462	0.0165	0.9585
18.445	-35.4097	521.3952	39.7698	-191.6806	-58.4401	597.2488	24.0273	240.499	-12.2913	91.6149	1.8621	211.6307	-0.0592	0.0182	-0.0073	-0.0462	0.0165	0.9585
18.4566	-33.1383	554.8724	39.5817	-204.1295	-56.9919	630.7248	19.2286	186.7695	-8.6924	71.1187	0.66425	164.2337	-0.0592	0.0182	-0.0073	-0.0462	0.0165	0.9585
18.4681	-30.1887	589.9036	39.583	-217.0952	-55.469	665.52	14.5553	140.0223	-5.8066	53.2927	-0.011646	123.1555	-0.0592	0.0182	-0.0073	-0.0462	0.0165	0.9585
